<svg xmlns="http://www.w3.org/2000/svg" viewBox="0 0 29.54 38.23"><path d="M33.15,20.37a9.58,9.58,0,0,1-19.15,0,9.58,9.58,0,0,1,19.15,0Z" transform="translate(-9 -6)" fill="none" stroke="#fff" stroke-linecap="round" stroke-linejoin="round" stroke-width="2"/><path d="M37.54,20.47A13.62,13.62,0,0,1,23.77,33.94,13.62,13.62,0,0,1,10,20.47,13.62,13.62,0,0,1,23.77,7,13.62,13.62,0,0,1,37.54,20.47Z" transform="translate(-9 -6)" fill="none" stroke="#fff" stroke-linecap="round" stroke-linejoin="round" stroke-width="2"/><path d="M22,19.18,23.95,17v7.48M24,35l-2,7.55c-.15.55-.6.83-.84.52L18.61,40a.31.31,0,0,0-.38-.1l-3.71,1.5c-.37.15-.62-.31-.47-.86L16.24,33M24,35l2,7.55c.15.55.6.83.84.52L29.36,40a.31.31,0,0,1,.38-.1l3.71,1.5c.37.15.62-.31.47-.86L31.72,33" transform="translate(-9 -6)" fill="none" stroke="#fff" stroke-linecap="round" stroke-linejoin="round" stroke-width="2"/></svg>