<svg xmlns="http://www.w3.org/2000/svg" xmlns:xlink="http://www.w3.org/1999/xlink" viewBox="0 0 25.64 25.64"><defs><mask id="a" x="0" y="0" width="25.64" height="25.64" maskUnits="userSpaceOnUse"><g transform="translate(-2 -2.36)"><polygon points="2 2.36 27.64 2.36 27.64 28 2 28 2 2.36" fill="#fff"/></g></mask></defs><title>icon-preorder</title><g mask="url(#a)"><path d="M14.82,26.9A11.72,11.72,0,1,1,26.55,15.18,11.74,11.74,0,0,1,14.82,26.9m0-24.54A12.82,12.82,0,1,0,27.64,15.18,12.83,12.83,0,0,0,14.82,2.36" transform="translate(-2 -2.36)" fill="#3a3735"/></g><path d="M14.12,15.12A.92.92,0,1,1,15,16,.92.92,0,0,1,14.12,15.12Zm2.8.79a2,2,0,0,0,.16-.79,2,2,0,0,0-1.67-2V8.56a.56.56,0,1,0-1.11,0v4.66A2,2,0,0,0,15,17.16a2,2,0,0,0,1.18-.38l2.9,2.11a.55.55,0,0,0,.78-.12.56.56,0,0,0-.12-.78Z" transform="translate(-2 -2.36)" fill="#3a3735"/></svg>