<svg xmlns="http://www.w3.org/2000/svg" xmlns:xlink="http://www.w3.org/1999/xlink" viewBox="0 0 19.81 21.63"><defs><mask id="a" x="0" y="0" width="19.82" height="21.63" maskUnits="userSpaceOnUse"><g transform="translate(-5 -4)"><polygon points="5 25.63 24.82 25.63 24.82 4 5 4 5 25.63" fill="#fff"/></g></mask></defs><title>icon-guide</title><path d="M17.65,25.1l-11.14,0a1,1,0,0,1-1-1V5.52a1,1,0,0,1,1-1H23.3a1,1,0,0,1,1,1v18.6a1,1,0,0,1-1,1H20.86Z" transform="translate(-5 -4)" fill="none" stroke="#3a3735" stroke-linecap="round" stroke-linejoin="round"/><path d="M6.48,8H23.7" transform="translate(-5 -4)" fill="none" stroke="#3a3735" stroke-linecap="square" stroke-linejoin="round"/><path d="M7.88,6.21A.16.16,0,1,1,7.72,6,.17.17,0,0,1,7.88,6.21Z" transform="translate(-5 -4)" fill="none" stroke="#3a3735" stroke-linecap="round" stroke-linejoin="round"/><path d="M9.4,6.21A.16.16,0,1,1,9.24,6,.16.16,0,0,1,9.4,6.21Z" transform="translate(-5 -4)" fill="none" stroke="#3a3735" stroke-linecap="round" stroke-linejoin="round"/><path d="M10.93,6.21A.16.16,0,1,1,10.76,6,.17.17,0,0,1,10.93,6.21Z" transform="translate(-5 -4)" fill="none" stroke="#3a3735" stroke-linecap="round" stroke-linejoin="round"/><g mask="url(#a)"><polygon points="3.12 13.51 10.94 13.51 10.94 6.77 3.12 6.77 3.12 13.51" fill="none" stroke="#3a3735" stroke-linecap="round" stroke-linejoin="round"/></g><g mask="url(#a)"><path d="M17.61,11.57h4.06" transform="translate(-5 -4)" fill="none" stroke="#3a3735" stroke-linecap="round" stroke-linejoin="round"/></g><g mask="url(#a)"><path d="M17.61,13.6h4.06" transform="translate(-5 -4)" fill="none" stroke="#3a3735" stroke-linecap="round" stroke-linejoin="round"/></g><g mask="url(#a)"><path d="M17.61,15.63h4.06" transform="translate(-5 -4)" fill="none" stroke="#3a3735" stroke-linecap="round" stroke-linejoin="round"/></g><g mask="url(#a)"><path d="M17.61,17.66h4.06" transform="translate(-5 -4)" fill="none" stroke="#3a3735" stroke-linecap="round" stroke-linejoin="round"/></g><g mask="url(#a)"><path d="M8,19.69H21.67" transform="translate(-5 -4)" fill="none" stroke="#3a3735" stroke-linecap="round" stroke-linejoin="round"/></g><g mask="url(#a)"><path d="M8,21.72H21.67" transform="translate(-5 -4)" fill="none" stroke="#3a3735" stroke-linecap="round" stroke-linejoin="round"/></g></svg>