<svg xmlns="http://www.w3.org/2000/svg" xmlns:xlink="http://www.w3.org/1999/xlink" viewBox="0 0 26.47 22.59"><defs><mask id="a" x="2.36" y="0" width="24.11" height="12.19" maskUnits="userSpaceOnUse"><g transform="translate(-2 -4)"><polygon points="4.36 4 28.47 4 28.47 16.19 4.36 16.19 4.36 4" fill="#fff"/></g></mask></defs><title>icon-settlements</title><path d="M25.8,19.09a.52.52,0,0,0-.69.26A10.49,10.49,0,0,1,5.1,16l1.57,1.27a.52.52,0,0,0,.65-.81l-2.47-2a.52.52,0,0,0-.69,0l-2,2a.52.52,0,0,0,.74.73l1.18-1.18a11.53,11.53,0,0,0,22,3.66.52.52,0,0,0-.26-.69" transform="translate(-2 -4)" fill="#3a3735"/><g mask="url(#a)"><path d="M28.32,13.28a.52.52,0,0,0-.73,0l-1.18,1.18a11.53,11.53,0,0,0-22-3.66.52.52,0,0,0,.95.43,10.5,10.5,0,0,1,20,3.31L23.8,13.27a.52.52,0,0,0-.65.81l2.47,2a.52.52,0,0,0,.69,0l2-2a.52.52,0,0,0,0-.73" transform="translate(-2 -4)" fill="#3a3735"/></g></svg>