<svg xmlns="http://www.w3.org/2000/svg" viewBox="0 0 23.81 23.99"><title>icon-service</title><path d="M24.24,15a9.41,9.41,0,0,0-.11-1.43.51.51,0,0,1,.28-.55L26,12.27a.51.51,0,0,0,.23-.68L24.53,8.16a.51.51,0,0,0-.7-.23l-1.44.75a.51.51,0,0,1-.61-.1A10.34,10.34,0,0,0,18,6.14a.51.51,0,0,1-.34-.48V4a.51.51,0,0,0-.51-.51h-4.6A.51.51,0,0,0,12,4V5.71a.51.51,0,0,1-.29.46A14.37,14.37,0,0,0,7.94,8.59a.52.52,0,0,1-.61.1L5.88,7.94a.51.51,0,0,0-.7.23L3.55,11.58a.51.51,0,0,0,.24.68L5.4,13a.52.52,0,0,1,.28.54A9.81,9.81,0,0,0,5.58,15a9,9,0,0,0,.12,1.43.51.51,0,0,1-.27.55l-1.57.78a.51.51,0,0,0-.23.68L5.3,21.88A.51.51,0,0,0,6,22.1l1.33-.73a.51.51,0,0,1,.61.1,14.41,14.41,0,0,0,3.77,2.42.51.51,0,0,1,.29.46V26a.51.51,0,0,0,.51.51h4.6a.51.51,0,0,0,.51-.51V24.38A.51.51,0,0,1,18,23.9a10.34,10.34,0,0,0,3.83-2.45.51.51,0,0,1,.6-.11l1.51.77a.51.51,0,0,0,.69-.23l1.66-3.42a.51.51,0,0,0-.23-.68L24.42,17a.51.51,0,0,1-.28-.54A10,10,0,0,0,24.24,15Z" transform="translate(-3 -3)" fill="none" stroke="#3a3735" stroke-linecap="round" stroke-linejoin="round"/><path d="M19.49,15a4.62,4.62,0,1,1-4.62-4.62A4.62,4.62,0,0,1,19.49,15Z" transform="translate(-3 -3)" fill="none" stroke="#3a3735" stroke-linecap="round" stroke-linejoin="round"/></svg>