<svg xmlns="http://www.w3.org/2000/svg" viewBox="0 0 16.69 21.62"><title>icon-contacts</title><path d="M7.5,24.22a.9.9,0,0,0,.9.9H22.29a.9.9,0,0,0,.9-.9V5.4a.9.9,0,0,0-.9-.9H8.4a.9.9,0,0,0-.9.9Z" transform="translate(-7 -4)" fill="none" stroke="#3a3735" stroke-linecap="round" stroke-linejoin="round"/><path d="M10.64,4.5V25.12" transform="translate(-7 -4)" fill="none" stroke="#3a3735" stroke-linecap="round" stroke-linejoin="round"/><path d="M18.46,14.21a2.33,2.33,0,0,0,.36-1.92,2,2,0,0,0-3.87.58,2.28,2.28,0,0,0,.42,1.33.61.61,0,0,1-.14.88,4,4,0,0,0-2,3.2.38.38,0,0,0,.36.44h6.65a.38.38,0,0,0,.36-.44,4,4,0,0,0-2-3.2A.61.61,0,0,1,18.46,14.21Z" transform="translate(-7 -4)" fill="none" stroke="#3a3735" stroke-linecap="round" stroke-linejoin="round"/></svg>