<svg xmlns="http://www.w3.org/2000/svg" viewBox="0 0 27.89 22.27"><title>icon-policy</title><polygon points="23.37 12 21.58 10.42 19.79 12 19.79 4.45 23.37 4.45 23.37 12" fill="none" stroke="#3a3735" stroke-linecap="round" stroke-linejoin="round"/><path d="M1.69,7.45H28" transform="translate(-1 -3)" fill="none" stroke="#3a3735" stroke-linecap="round" stroke-linejoin="round"/><path d="M4.3,5.51a.19.19,0,1,1-.19-.19A.19.19,0,0,1,4.3,5.51Z" transform="translate(-1 -3)" fill="none" stroke="#3a3735" stroke-linecap="round" stroke-linejoin="round"/><path d="M6.09,5.51a.19.19,0,1,1-.19-.19A.19.19,0,0,1,6.09,5.51Z" transform="translate(-1 -3)" fill="none" stroke="#3a3735" stroke-linecap="round" stroke-linejoin="round"/><path d="M7.88,5.51a.19.19,0,1,1-.19-.19A.19.19,0,0,1,7.88,5.51Z" transform="translate(-1 -3)" fill="none" stroke="#3a3735" stroke-linecap="round" stroke-linejoin="round"/><path d="M27.39,24.76H2.5a1,1,0,0,1-1-1V4.5a1,1,0,0,1,1-1H27.39a1,1,0,0,1,1,1V23.76A1,1,0,0,1,27.39,24.76Z" transform="translate(-1 -3)" fill="none" stroke="#3a3735" stroke-linecap="round" stroke-linejoin="round"/><path d="M5.27,11.63H17.21" transform="translate(-1 -3)" fill="none" stroke="#3a3735" stroke-linecap="round" stroke-linejoin="round"/><path d="M5.27,14.62H17.21" transform="translate(-1 -3)" fill="none" stroke="#3a3735" stroke-linecap="round" stroke-linejoin="round"/><path d="M5.27,17.6H17.21" transform="translate(-1 -3)" fill="none" stroke="#3a3735" stroke-linecap="round" stroke-linejoin="round"/><path d="M5.27,20.59h19.1" transform="translate(-1 -3)" fill="none" stroke="#3a3735" stroke-linecap="round" stroke-linejoin="round"/></svg>