<svg xmlns="http://www.w3.org/2000/svg" xmlns:xlink="http://www.w3.org/1999/xlink" viewBox="0 0 21.1 26.18"><defs><mask id="a" x="0" y="0" width="21.1" height="26.18" maskUnits="userSpaceOnUse"><g transform="translate(-4 -2)"><polygon points="4 2 25.1 2 25.1 28.18 4 28.18 4 2" fill="#fff"/></g></mask></defs><title>icon-bag</title><g mask="url(#a)"><path d="M18.61,11.38c0,.19-.34.19-.34,0,0,0,0,0,0,0a.56.56,0,0,0,.15,0,.55.55,0,0,0,.15,0S18.61,11.36,18.61,11.38Zm-8,0c0,.19-.34.19-.34,0,0,0,0,0,0,0a.39.39,0,0,0,.31,0S10.64,11.36,10.64,11.38ZM5.18,27,6.24,8H9.88v2.55a1,1,0,0,0-.42.8,1,1,0,0,0,2,0,1,1,0,0,0-.42-.8V8h6.8v2.55a1,1,0,0,0-.42.8,1,1,0,0,0,2,0,1,1,0,0,0-.42-.8V8h3.81l1.08,19ZM11,3.18l6.81,0v3.7H11ZM24,8a1.16,1.16,0,0,0-1.16-1.1H19V3.16A1.16,1.16,0,0,0,17.87,2H11A1.16,1.16,0,0,0,9.88,3.16v3.7H6.24A1.16,1.16,0,0,0,5.08,8L4,27a1.16,1.16,0,0,0,1.16,1.23H23.93A1.16,1.16,0,0,0,25.09,27Z" transform="translate(-4 -2)" fill="#3a3735"/></g></svg>