<svg xmlns="http://www.w3.org/2000/svg" viewBox="0 0 24.27 21.29"><title>icon-tech</title><path d="M14.78,19.66l-11-7.11a.48.48,0,0,1,0-.83l11-7.12a.62.62,0,0,1,.67,0l11,7.12a.48.48,0,0,1,0,.83l-11,7.11A.62.62,0,0,1,14.78,19.66Z" transform="translate(-3 -4)" fill="none" stroke="#3a3735" stroke-linecap="round" stroke-linejoin="round"/><path d="M15.11,19.82,7.4,14.89v4.66a.48.48,0,0,0,.22.4l7.16,4.74a.6.6,0,0,0,.66,0l7.16-4.74a.48.48,0,0,0,.22-.4V14.89Z" transform="translate(-3 -4)" fill="none" stroke="#3a3735" stroke-linecap="round" stroke-linejoin="round"/><path d="M26.77,18.64V12.21" transform="translate(-3 -4)" fill="none" stroke="#3a3735" stroke-linecap="round" stroke-linejoin="round"/></svg>