<svg xmlns="http://www.w3.org/2000/svg" xmlns:xlink="http://www.w3.org/1999/xlink" viewBox="0 0 21.12 27.45"><defs><mask id="a" x="0" y="0" width="21.12" height="27.45" maskUnits="userSpaceOnUse"><g transform="translate(-4 -1)"><polygon points="4 1 25.12 1 25.12 28.45 4 28.45 4 1" fill="#fff"/></g></mask></defs><title>icon-orders</title><g mask="url(#a)"><path d="M5.19,27.26h0V2.19H17.4V7.52a1.2,1.2,0,0,0,1.19,1.19h5.33V27.26ZM23.09,7.53H18.59V3Zm2,.52V8a.59.59,0,0,0-.15-.27L18.41,1.17A.57.57,0,0,0,18.14,1H5.19A1.2,1.2,0,0,0,4,2.19V27.26a1.19,1.19,0,0,0,1.19,1.19H23.92a1.19,1.19,0,0,0,1.19-1.19V8.12A.54.54,0,0,0,25.1,8Z" transform="translate(-4 -1)" fill="#3a3735"/></g><path d="M21.27,11.62H8.19a.59.59,0,1,0,0,1.19H21.27a.59.59,0,1,0,0-1.19" transform="translate(-4 -1)" fill="#3a3735"/><path d="M21.27,14.59H8.19a.59.59,0,1,0,0,1.19H21.27a.59.59,0,1,0,0-1.19" transform="translate(-4 -1)" fill="#3a3735"/><path d="M21.27,17.56H8.19a.59.59,0,1,0,0,1.19H21.27a.59.59,0,1,0,0-1.19" transform="translate(-4 -1)" fill="#3a3735"/><path d="M15.92,20.53H8.19a.59.59,0,0,0,0,1.19h7.73a.59.59,0,1,0,0-1.19" transform="translate(-4 -1)" fill="#3a3735"/></svg>