<svg xmlns="http://www.w3.org/2000/svg" xmlns:xlink="http://www.w3.org/1999/xlink" viewBox="0 0 19 20"><defs><mask id="a" x="0" y="0" width="19" height="20" maskUnits="userSpaceOnUse"><g transform="translate(-6 -4)"><polygon points="6 4 25 4 25 24 6 24 6 4" fill="#fff"/></g></mask></defs><title>icon-news</title><g mask="url(#a)"><path d="M22.56,17.12,20.89,11.9l-2-6.09h0l-.1-.32,1.25-.36,3.73,11.63Zm-8.62-.91L13.89,16,12.26,11l5.83-4.11,3.07,9.55ZM14,22.49a.8.8,0,0,1-.48.39.83.83,0,0,1-.62-.06.79.79,0,0,1-.4-.46l-1.37-4.27,1.56-.47,1.37,4.28A.76.76,0,0,1,14,22.49ZM8.6,16.69a.67.67,0,0,1-.83-.42l-.62-1.94a.64.64,0,0,1,.44-.8L8,13.4l.66,2,.36,1.12Zm.46-4.41A.65.65,0,0,1,9.45,12l1.78-.54,1.25,3.88.36,1.13L11.06,17a.67.67,0,0,1-.5,0,.64.64,0,0,1-.32-.38l-.91-2.82-.31-1A.61.61,0,0,1,9.06,12.28ZM22.74,9a3.55,3.55,0,0,1,.88,1.48,2.88,2.88,0,0,1,0,2.08l-1.22-3.8A1.51,1.51,0,0,1,22.74,9ZM25,16.68l-1-3c.9-.54,1.2-2,.69-3.58a4.6,4.6,0,0,0-1.17-1.94A2.06,2.06,0,0,0,22,7.54l-1-3a.75.75,0,0,0-.38-.44,1.21,1.21,0,0,0-.9,0l-1.34.4a1.3,1.3,0,0,0-.57.34.76.76,0,0,0-.2.77l.06.19-6.39,4.5-2.23.67a1.76,1.76,0,0,0-1.05.85,1.67,1.67,0,0,0-.18.53l-.64.19a1.72,1.72,0,0,0-1.18,2.16L6.7,16.6a1.73,1.73,0,0,0,.88,1,1.82,1.82,0,0,0,.83.2,1.86,1.86,0,0,0,.53-.08l.64-.19a1.82,1.82,0,0,0,.33.26.46.46,0,0,0,0,.09l1.54,4.79A1.94,1.94,0,0,0,13.31,24a2,2,0,0,0,.57-.08,1.87,1.87,0,0,0,1.28-2.35L13.8,17.3l7.71.21.06.19a.86.86,0,0,0,.87.55,1.41,1.41,0,0,0,.41-.06l1.34-.4C24.78,17.61,25.11,17.14,25,16.68Z" transform="translate(-6 -4)" fill="#3a3735"/></g></svg>