<svg xmlns="http://www.w3.org/2000/svg" viewBox="0 0 17.08 21.71"><title>icon-webinars</title><path d="M8.6,20.75H8.35a.86.86,0,0,1-.85-.85V14.3a.86.86,0,0,1,.85-.85H8.6a.86.86,0,0,1,.85.85v5.6A.86.86,0,0,1,8.6,20.75Z" transform="translate(-7 -4)" fill="none" stroke="#3a3735" stroke-linecap="round" stroke-linejoin="round"/><path d="M22.48,20.75h.24a.86.86,0,0,0,.85-.85V14.3a.86.86,0,0,0-.85-.85h-.24a.86.86,0,0,0-.85.85v5.6A.86.86,0,0,0,22.48,20.75Z" transform="translate(-7 -4)" fill="none" stroke="#3a3735" stroke-linecap="round" stroke-linejoin="round"/><path d="M7.5,14.35V12.54a8,8,0,1,1,16.08,0v1.82" transform="translate(-7 -4)" fill="none" stroke="#3a3735" stroke-linecap="round" stroke-linejoin="round"/><path d="M23.58,19.82c0,2-1.93,4.42-3.93,4.42H18.09" transform="translate(-7 -4)" fill="none" stroke="#3a3735" stroke-linecap="round" stroke-linejoin="round"/><path d="M14.11,24.36v-.24a.86.86,0,0,1,.85-.85h2a.86.86,0,0,1,.85.85v.24a.86.86,0,0,1-.85.85H15A.86.86,0,0,1,14.11,24.36Z" transform="translate(-7 -4)" fill="none" stroke="#3a3735" stroke-linecap="round" stroke-linejoin="round"/></svg>