<svg xmlns="http://www.w3.org/2000/svg" viewBox="0 0 16.75 21.76"><title>icon-employ</title><path d="M8,25.26h14.8a.47.47,0,0,0,.47-.47V9.66L18.09,4.5H8A.47.47,0,0,0,7.5,5V24.79A.47.47,0,0,0,8,25.26Z" transform="translate(-7 -4)" fill="none" stroke="#3a3735" stroke-linecap="round" stroke-linejoin="round"/><path d="M18.56,9.66h4.69L18.09,4.5V9.19A.47.47,0,0,0,18.56,9.66Z" transform="translate(-7 -4)" fill="none" stroke="#3a3735" stroke-linecap="round" stroke-linejoin="round"/><path d="M10.34,16.65H20.68" transform="translate(-7 -4)" fill="none" stroke="#3a3735" stroke-linecap="round" stroke-linejoin="round"/><path d="M10.34,19H20.68" transform="translate(-7 -4)" fill="none" stroke="#3a3735" stroke-linecap="round" stroke-linejoin="round"/><path d="M10.34,21.35h6.11" transform="translate(-7 -4)" fill="none" stroke="#3a3735" stroke-linecap="round" stroke-linejoin="round"/><path d="M14.78,10.75a1.54,1.54,0,0,0-.84-2.47A1.55,1.55,0,0,0,12,9.79a1.52,1.52,0,0,0,.34,1,.41.41,0,0,1-.13.62,2.85,2.85,0,0,0-1.53,2.11.42.42,0,0,0,.41.47H16a.42.42,0,0,0,.41-.47,2.85,2.85,0,0,0-1.53-2.11A.41.41,0,0,1,14.78,10.75Z" transform="translate(-7 -4)" fill="none" stroke="#3a3735" stroke-linecap="round" stroke-linejoin="round"/></svg>