<svg xmlns="http://www.w3.org/2000/svg" xmlns:xlink="http://www.w3.org/1999/xlink" width="149" height="46" viewBox="0 0 149 46">
    <defs>
        <path id="a" d="M0 .63h21.559v20.425H0z"/>
        <path id="c" d="M.764.635h24.243v19.739H.764z"/>
        <path id="e" d="M.79.635h18.355v19.739H.791z"/>
        <path id="g" d="M.197 0h20.214v19.763H.197z"/>
    </defs>
    <g fill="none" fill-rule="evenodd">
        <path fill="#FFFFFF" d="M30 0H12.789c-2.152-.034-4.183.932-4.537 2.964L5 19l15.84-6.223L30 .001z"/>
        <g transform="translate(0 24)">
            <mask id="b" fill="#fff">
                <use xlink:href="#a"/>
            </mask>
            <path fill="#FFFFFF" d="M3.27-.193L.046 15.789c-.35 2.051 1.367 4.402 3.496 4.442H21.56l-4.72-13.654L3.27-.193z" mask="url(#b)"/>
        </g>
        <g transform="translate(26 24)">
            <mask id="d" fill="#fff">
                <use xlink:href="#c"/>
            </mask>
            <path fill="#FFFFFF" d="M.764 20.374h16.673c2.093.026 4.07-1.616 4.41-3.675L25.007.635 9.442 6.952.764 20.374z" mask="url(#d)"/>
        </g>
        <path fill="#FFFFFF" d="M52.663 0H34l4.574 13.22L52.567 20l3.38-16.219C56.301 1.73 54.833.033 52.663 0"/>
        <path fill="#FFFFFF" d="M31.534 0L29 23l22-.964-16.873-5.517zM5 22.962l16.84 5.575L24.663 45 27 22zM112.307 18.956c.117.004 1.184.044 2.373.044 4.797 0 5.725-1.288 7.491-4.338.071-.12.15-.26.236-.413l.058-.105C124.109 11.285 129.99.607 129.99.607c.065-.33-.22-.607-.638-.607h-3.532c-.42 0-.777.26-.982.607l-7.358 12.797c-.416.602-.92.966-2.025.97h-2.52l1.305-6.366 1.546-7.4c.07-.331-.217-.608-.638-.608h-3.447c-.418 0-.812.277-.879.607l-2.636 12.797c-.76 2.71.838 5.368 4.12 5.552"/>
        <g transform="translate(58 24)">
            <mask id="f" fill="#fff">
                <use xlink:href="#e"/>
            </mask>
            <path fill="#FFFFFF" d="M18.487.635H2.34c-.424 0-.829.269-.895.618L.801 4.43c-.069.338.223.624.645.624h6.007l-2.97 14.7c-.073.337.22.619.64.619H8.57c.424 0 .827-.282.893-.618l2.972-14.701h5.17c.423 0 .826-.286.895-.624l.636-3.178c.07-.35-.22-.618-.648-.618" mask="url(#f)"/>
        </g>
        <path fill="#FFFFFF" d="M138.702 32.998c-.405.943-1.102.87-2.346.858h-4.418l.851-4.415 4.944.019c.322 0 1.895-.178 1.72.856-.055.315-.59 2.318-.751 2.682m5.189-3.23c.618-3.144-1.441-4.756-4.772-4.768h-9.633c-.414 0-.81.285-.875.624l-3.603 18.748c-.06.341.217.628.638.628h3.364c.421 0 .815-.287.879-.628l1.166-5.969h4.322l2.42 5.944c.07.345.463.624.882.624h3.592c.425 0 .712-.279.641-.624l-2.758-6.574c2.524-1.064 2.874-3.545 3.737-8.005"/>
        <g transform="translate(128)">
            <mask id="h" fill="#fff">
                <use xlink:href="#g"/>
            </mask>
            <path fill="#FFFFFF" d="M14.287 10.052H6.914l.478-2.334c.65-3.308.984-3.314 4.431-3.347h3.616l-1.152 5.68zM16.256 0h-4.793C6.055 0 3.715 1.986 2.901 5.67L1.43 13.12l-1.22 6.027c-.076.337.212.616.635.616H4.2c.416 0 .813-.279.883-.616l.886-4.442h7.374l-.553 2.745-.354 1.697c-.065.337.218.616.632.616h3.413c.419 0 .816-.279.886-.616l.056-.302h.01L20.36 4.371C20.668 2.729 19.624.006 16.256 0z" mask="url(#h)"/>
        </g>
        <path fill="#FFFFFF" d="M122.904 25h-3.356c-.421 0-.82.274-.887.624l-2.307 11.475c-.25 1.245-.916 2.921-2.797 2.921h-4.09c-2.026-.007-2.159-.9-1.921-2.25.032-.186 2.427-12.146 2.427-12.146.074-.35-.216-.624-.632-.624h-3.426c-.422 0-.815.274-.886.624 0 0-1.96 9.68-2.411 12.308-.757 4.42 2.025 6.813 5.123 6.813l5.414-.005v-.012c4.488-.163 7.188-2.926 7.732-5.7.45-2.266 2.652-13.404 2.652-13.404.07-.35-.218-.624-.635-.624M80.368 0h-3.382c-.414 0-.802.28-.869.629L73.92 12.252s-4.392-8.53-5.318-10.294C67.612.068 67.323.09 66.127.005h-1.613a.942.942 0 0 0-.358.08c-.248.115-.438.31-.489.544l-3.658 18.745c-.063.343.21.626.627.626h3.384c.415 0 .806-.283.87-.626L66.807 9s3.912 7.374 5.01 9.436c.874 1.636 1.256 1.552 2.266 1.564h2.443c.411 0 .807-.283.87-.626L80.99.63c.066-.35-.214-.629-.622-.629M94.576 37.27c-.518 2.578-1.993 2.95-4.63 2.95-2.183 0-5.978.017-5.978.017s.966-4.64 1.443-7.076c.583-2.948 1.307-3.453 4.632-3.437 2.318.013 6.016 0 6.016 0s-1.017 5.18-1.483 7.545M96.316 25s-2.926.012-7.1 0c-4.661-.006-7.762 2.857-8.329 5.749-.57 2.886-1.702 8.468-1.702 8.468-.784 2.904.96 5.742 4.51 5.742 0 0 3.406.041 7.343.041 4.77 0 7.517-2.89 8.085-5.783.568-2.89 1.694-8.468 1.694-8.468.739-3.124-.76-5.725-4.5-5.749M98.57 12.272c-.514 2.575-1.992 2.946-4.634 2.946-2.177 0-5.97.022-5.97.022s.96-4.64 1.44-7.072c.585-2.947 1.306-3.458 4.634-3.444 2.32.02 6.013 0 6.013 0s-1.012 5.184-1.483 7.548M100.313 0s-2.926.011-7.1 0c-4.663-.005-7.763 2.856-8.327 5.75a3629.4 3629.4 0 0 1-1.699 8.471c-.79 2.9.957 5.737 4.504 5.737 0 0 3.403.042 7.345.042 4.77 0 7.511-2.89 8.08-5.779.568-2.897 1.702-8.47 1.702-8.47.737-3.116-.769-5.729-4.505-5.751"/>
    </g>
</svg>
