<svg xmlns="http://www.w3.org/2000/svg" viewBox="0 0 16.55 22.15"><title>icon-calc</title><path d="M22.08,24.68H8.47a1,1,0,0,1-1-1V4.47a1,1,0,0,1,1-1H22.08a1,1,0,0,1,1,1V23.68A1,1,0,0,1,22.08,24.68Z" transform="translate(-7 -3)" fill="none" stroke="#3a3735" stroke-linecap="round" stroke-linejoin="round" stroke-width="0.94"/><path d="M20,9.69H10.52a1,1,0,0,1-1-1V7a1,1,0,0,1,1-1H20a1,1,0,0,1,1,1V8.69A1,1,0,0,1,20,9.69Z" transform="translate(-7 -3)" fill="none" stroke="#3a3735" stroke-linecap="round" stroke-linejoin="round" stroke-width="0.94"/><path d="M11.36,14.25h-.31a1,1,0,0,1-1-1v-.31a1,1,0,0,1,1-1h.31a1,1,0,0,1,1,1v.31A1,1,0,0,1,11.36,14.25Z" transform="translate(-7 -3)" fill="none" stroke="#3a3735" stroke-linecap="round" stroke-linejoin="round" stroke-width="0.94"/><path d="M15.43,14.25h-.31a1,1,0,0,1-1-1v-.31a1,1,0,0,1,1-1h.31a1,1,0,0,1,1,1v.31A1,1,0,0,1,15.43,14.25Z" transform="translate(-7 -3)" fill="none" stroke="#3a3735" stroke-linecap="round" stroke-linejoin="round" stroke-width="0.94"/><path d="M19.5,14.25h-.31a1,1,0,0,1-1-1v-.31a1,1,0,0,1,1-1h.31a1,1,0,0,1,1,1v.31A1,1,0,0,1,19.5,14.25Z" transform="translate(-7 -3)" fill="none" stroke="#3a3735" stroke-linecap="round" stroke-linejoin="round" stroke-width="0.94"/><path d="M11.36,18.18h-.31a1,1,0,0,1-1-1v-.31a1,1,0,0,1,1-1h.31a1,1,0,0,1,1,1v.31A1,1,0,0,1,11.36,18.18Z" transform="translate(-7 -3)" fill="none" stroke="#3a3735" stroke-linecap="round" stroke-linejoin="round" stroke-width="0.94"/><path d="M15.43,18.18h-.31a1,1,0,0,1-1-1v-.31a1,1,0,0,1,1-1h.31a1,1,0,0,1,1,1v.31A1,1,0,0,1,15.43,18.18Z" transform="translate(-7 -3)" fill="none" stroke="#3a3735" stroke-linecap="round" stroke-linejoin="round" stroke-width="0.94"/><path d="M19.5,18.18h-.31a1,1,0,0,1-1-1v-.31a1,1,0,0,1,1-1h.31a1,1,0,0,1,1,1v.31A1,1,0,0,1,19.5,18.18Z" transform="translate(-7 -3)" fill="none" stroke="#3a3735" stroke-linecap="round" stroke-linejoin="round" stroke-width="0.94"/><path d="M11.36,22.19h-.31a1,1,0,0,1-1-1v-.31a1,1,0,0,1,1-1h.31a1,1,0,0,1,1,1v.31A1,1,0,0,1,11.36,22.19Z" transform="translate(-7 -3)" fill="none" stroke="#3a3735" stroke-linecap="round" stroke-linejoin="round" stroke-width="0.94"/><path d="M15.43,22.19h-.31a1,1,0,0,1-1-1v-.31a1,1,0,0,1,1-1h.31a1,1,0,0,1,1,1v.31A1,1,0,0,1,15.43,22.19Z" transform="translate(-7 -3)" fill="none" stroke="#3a3735" stroke-linecap="round" stroke-linejoin="round" stroke-width="0.94"/><path d="M19.5,22.19h-.31a1,1,0,0,1-1-1v-.31a1,1,0,0,1,1-1h.31a1,1,0,0,1,1,1v.31A1,1,0,0,1,19.5,22.19Z" transform="translate(-7 -3)" fill="none" stroke="#3a3735" stroke-linecap="round" stroke-linejoin="round" stroke-width="0.94"/></svg>