<svg xmlns="http://www.w3.org/2000/svg" viewBox="0 0 15.64 20.64"><title>icon-pos</title><path d="M7.5,23.69a.44.44,0,0,0,.44.45H21.7a.44.44,0,0,0,.44-.45V9.38L17.34,4.5H7.94a.44.44,0,0,0-.44.45Z" transform="translate(-7 -4)" fill="none" stroke="#3a3735" stroke-linecap="round" stroke-linejoin="round"/><path d="M17.78,9.38h4.36L17.34,4.5V8.93A.44.44,0,0,0,17.78,9.38Z" transform="translate(-7 -4)" fill="none" stroke="#3a3735" stroke-linecap="round" stroke-linejoin="round"/><path d="M14.17,14.33a1.18,1.18,0,0,1,.15-.39.65.65,0,0,1,.25-.24.81.81,0,0,1,.72,0,.66.66,0,0,1,.25.24,1.16,1.16,0,0,1,.14.39,2.5,2.5,0,0,1,0,.52,1.71,1.71,0,0,1-.2.92.75.75,0,0,1-1.21,0,1.76,1.76,0,0,1-.19-.92,2.58,2.58,0,0,1,0-.52m-.55,1.88a1.49,1.49,0,0,0,.55.38,2,2,0,0,0,.75.13,2,2,0,0,0,.76-.14,1.5,1.5,0,0,0,.55-.38,1.62,1.62,0,0,0,.33-.59,2.61,2.61,0,0,0,0-1.51,1.65,1.65,0,0,0-.33-.59,1.47,1.47,0,0,0-.55-.38,2,2,0,0,0-.76-.14,2,2,0,0,0-.77.14,1.5,1.5,0,0,0-.55.39,1.62,1.62,0,0,0-.33.59,2.46,2.46,0,0,0-.11.75,2.43,2.43,0,0,0,.11.77,1.61,1.61,0,0,0,.34.59" transform="translate(-7 -4)" fill="#3a3735"/><path d="M10.4,13.59h.45l.27,0a.58.58,0,0,1,.21.09.42.42,0,0,1,.14.16.62.62,0,0,1,.05.27.63.63,0,0,1-.05.28.42.42,0,0,1-.14.17.6.6,0,0,1-.22.09,1.41,1.41,0,0,1-.29,0H10.4Zm-.78,2.88a.47.47,0,0,0,.14.1.46.46,0,0,0,.36,0,.48.48,0,0,0,.14-.1.5.5,0,0,0,.1-.15.46.46,0,0,0,0-.19v-.88H11a2.41,2.41,0,0,0,.59-.07A1.32,1.32,0,0,0,12,15a.93.93,0,0,0,.29-.34,1.08,1.08,0,0,0,.11-.49,1.09,1.09,0,0,0-.12-.54.91.91,0,0,0-.32-.34,1.35,1.35,0,0,0-.46-.17A2.91,2.91,0,0,0,11,13h-.89a.78.78,0,0,0-.32.05.41.41,0,0,0-.18.14.54.54,0,0,0-.08.22,1.83,1.83,0,0,0,0,.26v2.41a.5.5,0,0,0,.13.34Z" transform="translate(-7 -4)" fill="#3a3735"/><path d="M17.61,16.38a1.35,1.35,0,0,0,.25.13l.31.1.34.06.35,0a2.25,2.25,0,0,0,.61-.08,1.39,1.39,0,0,0,.46-.22,1,1,0,0,0,.29-.35,1,1,0,0,0,.1-.46.91.91,0,0,0-.08-.4.87.87,0,0,0-.23-.29,1.46,1.46,0,0,0-.36-.21l-.47-.17-.32-.09-.29-.1a.69.69,0,0,1-.2-.14.3.3,0,0,1,0-.37.43.43,0,0,1,.14-.12.74.74,0,0,1,.2-.07l.23,0h.23l.2,0,.2.07.21.1a.28.28,0,0,0,.14,0l.11,0,.09-.06a.28.28,0,0,0,.06-.09.26.26,0,0,0,0-.11.31.31,0,0,0-.06-.19.61.61,0,0,0-.17-.15,1.14,1.14,0,0,0-.24-.12L19.44,13l-.29,0-.27,0a2.25,2.25,0,0,0-.61.08,1.43,1.43,0,0,0-.46.22.94.94,0,0,0-.39.78,1,1,0,0,0,0,.33.71.71,0,0,0,.15.25,1,1,0,0,0,.26.2,2.83,2.83,0,0,0,.38.17l.23.08.05,0,0,0,.05,0,.07,0,.13,0,.06,0,.06,0,.11,0,.15.06.12.08a.36.36,0,0,1,.08.11.35.35,0,0,1,0,.14.33.33,0,0,1,0,.18.38.38,0,0,1-.13.12.66.66,0,0,1-.2.07l-.24,0a1.57,1.57,0,0,1-.44-.06,2.89,2.89,0,0,1-.38-.14l-.1,0-.09,0-.09,0h-.09l-.1,0-.09.08a.43.43,0,0,0-.07.11.31.31,0,0,0,0,.12.3.3,0,0,0,.06.18.64.64,0,0,0,.17.16" transform="translate(-7 -4)" fill="#3a3735"/></svg>