<svg xmlns="http://www.w3.org/2000/svg" viewBox="0 0 23.24 25.74"><title>icon-soc</title><path d="M18.94,15a3.2,3.2,0,1,1-3.2-3.2A3.2,3.2,0,0,1,18.94,15Z" transform="translate(-4 -2)" fill="none" stroke="#3a3735" stroke-linecap="round" stroke-linejoin="round"/><path d="M18,4.85A2.35,2.35,0,1,1,15.62,2.5,2.35,2.35,0,0,1,18,4.85Z" transform="translate(-4 -2)" fill="none" stroke="#3a3735" stroke-linecap="round" stroke-linejoin="round"/><path d="M15.64,11.32V7.58" transform="translate(-4 -2)" fill="none" stroke="#3a3735" stroke-linecap="round" stroke-linejoin="round"/><path d="M18,24.9a2.35,2.35,0,1,0-2.35,2.35A2.35,2.35,0,0,0,18,24.9Z" transform="translate(-4 -2)" fill="none" stroke="#3a3735" stroke-linecap="round" stroke-linejoin="round"/><path d="M15.64,18.81V22" transform="translate(-4 -2)" fill="none" stroke="#3a3735" stroke-linecap="round" stroke-linejoin="round"/><path d="M5.71,12.08a2.35,2.35,0,1,0-.92-3.19A2.35,2.35,0,0,0,5.71,12.08Z" transform="translate(-4 -2)" fill="none" stroke="#3a3735" stroke-linecap="round" stroke-linejoin="round"/><path d="M12.36,13.28,9,11.45" transform="translate(-4 -2)" fill="none" stroke="#3a3735" stroke-linecap="round" stroke-linejoin="round"/><path d="M23.26,21.77a2.35,2.35,0,1,1,3.19-.92A2.35,2.35,0,0,1,23.26,21.77Z" transform="translate(-4 -2)" fill="none" stroke="#3a3735" stroke-linecap="round" stroke-linejoin="round"/><path d="M18.47,16.66l3.36,1.85" transform="translate(-4 -2)" fill="none" stroke="#3a3735" stroke-linecap="round" stroke-linejoin="round"/><path d="M25.53,12.08a2.35,2.35,0,1,1,.92-3.19A2.35,2.35,0,0,1,25.53,12.08Z" transform="translate(-4 -2)" fill="none" stroke="#3a3735" stroke-linecap="round" stroke-linejoin="round"/><path d="M18.88,13.28l3.32-1.83" transform="translate(-4 -2)" fill="none" stroke="#3a3735" stroke-linecap="round" stroke-linejoin="round"/><path d="M8,21.77a2.35,2.35,0,1,0-3.19-.92A2.35,2.35,0,0,0,8,21.77Z" transform="translate(-4 -2)" fill="none" stroke="#3a3735" stroke-linecap="round" stroke-linejoin="round"/><path d="M12.77,16.66,9.41,18.51" transform="translate(-4 -2)" fill="none" stroke="#3a3735" stroke-linecap="round" stroke-linejoin="round"/></svg>