<svg xmlns="http://www.w3.org/2000/svg" viewBox="0 0 15.64 20.64"><title>icon-xlsx</title><path d="M8.17,24.19a.44.44,0,0,0,.44.45H22.37a.44.44,0,0,0,.44-.45V9.88L18,5H8.61a.44.44,0,0,0-.44.45Z" transform="translate(-7.67 -4.5)" fill="none" stroke="#3b3735" stroke-linecap="round" stroke-linejoin="round"/><path d="M18.45,9.88h4.35L18,5V9.43A.44.44,0,0,0,18.45,9.88Z" transform="translate(-7.67 -4.5)" fill="none" stroke="#3b3735" stroke-linecap="round" stroke-linejoin="round"/><path d="M11.45,18.62a.53.53,0,0,1-.18.19.39.39,0,0,1-.2.06.33.33,0,0,1-.25-.11.4.4,0,0,1-.08-.13.43.43,0,0,1,0-.16.61.61,0,0,1,0-.19.78.78,0,0,1,.1-.21l.85-1.27-.81-1.19a.56.56,0,0,1-.08-.16.53.53,0,0,1,0-.15.47.47,0,0,1,0-.18.45.45,0,0,1,.09-.14.43.43,0,0,1,.13-.09.37.37,0,0,1,.16,0,.38.38,0,0,1,.2.06.58.58,0,0,1,.18.19l.71,1.16L13,15.12a.65.65,0,0,1,.2-.22.4.4,0,0,1,.21-.07.34.34,0,0,1,.14,0,.4.4,0,0,1,.12.09.41.41,0,0,1,.11.28.49.49,0,0,1-.09.27l-.87,1.29.88,1.34a.44.44,0,0,1,.06.13.5.5,0,0,1,0,.13.46.46,0,0,1,0,.18.49.49,0,0,1-.09.15.44.44,0,0,1-.13.1.34.34,0,0,1-.16,0,.37.37,0,0,1-.2-.06A.6.6,0,0,1,13,18.6l-.75-1.22Z" transform="translate(-7.67 -4.5)" fill="#3b3735"/><path d="M16.56,18.13a.3.3,0,0,1,.13,0,.34.34,0,0,1,.11.08.39.39,0,0,1,.07.12.39.39,0,0,1,0,.29.39.39,0,0,1-.07.12.34.34,0,0,1-.11.08.31.31,0,0,1-.13,0H14.84a.37.37,0,0,1-.23-.07.47.47,0,0,1-.15-.17.81.81,0,0,1-.08-.24,1.79,1.79,0,0,1,0-.28V15.38a.6.6,0,0,1,0-.21.58.58,0,0,1,.1-.17.47.47,0,0,1,.15-.11.42.42,0,0,1,.37,0,.48.48,0,0,1,.15.11.54.54,0,0,1,.1.17.6.6,0,0,1,0,.21v2.75Z" transform="translate(-7.67 -4.5)" fill="#3b3735"/><path d="M18,15.89a.33.33,0,0,0,.08.22.71.71,0,0,0,.21.16,1.8,1.8,0,0,0,.29.12l.33.1a4.85,4.85,0,0,1,.48.19,1.48,1.48,0,0,1,.37.24,1,1,0,0,1,.24.33,1.12,1.12,0,0,1,.08.46,1.27,1.27,0,0,1-.1.52,1.1,1.1,0,0,1-.3.4,1.38,1.38,0,0,1-.47.25,2.08,2.08,0,0,1-.63.09l-.36,0-.35-.07-.32-.11a1.39,1.39,0,0,1-.26-.14.68.68,0,0,1-.17-.18.37.37,0,0,1-.06-.2.35.35,0,0,1,0-.14.48.48,0,0,1,.07-.12.37.37,0,0,1,.09-.09.19.19,0,0,1,.1,0l.09,0,.09,0,.09.05.1.05a2.8,2.8,0,0,0,.39.15,1.49,1.49,0,0,0,.45.07l.24,0a.66.66,0,0,0,.2-.08.4.4,0,0,0,.14-.14.4.4,0,0,0,.05-.21.42.42,0,0,0,0-.16.39.39,0,0,0-.08-.13L19,17.41l-.15-.07-.11,0-.06,0-.07,0-.13,0-.07,0-.05,0,0,0-.05,0L18,17a2.63,2.63,0,0,1-.39-.19,1.06,1.06,0,0,1-.27-.22.81.81,0,0,1-.15-.28,1.28,1.28,0,0,1,0-.37,1.17,1.17,0,0,1,.1-.5,1.06,1.06,0,0,1,.3-.38,1.39,1.39,0,0,1,.47-.24,2.13,2.13,0,0,1,.63-.09l.27,0,.3.05.29.09a1.22,1.22,0,0,1,.24.13.67.67,0,0,1,.17.17.38.38,0,0,1,.06.22.33.33,0,0,1,0,.13.31.31,0,0,1-.06.1l-.09.07-.11,0a.28.28,0,0,1-.14,0l-.22-.11-.2-.08-.21,0h-.24l-.24,0a.72.72,0,0,0-.21.07.44.44,0,0,0-.15.13.33.33,0,0,0-.06.2" transform="translate(-7.67 -4.5)" fill="#3b3735"/></svg>