<svg xmlns="http://www.w3.org/2000/svg" xmlns:xlink="http://www.w3.org/1999/xlink" viewBox="0 0 25.14 22.03"><defs><mask id="a" x="0" y="2.62" width="25.14" height="19.42" maskUnits="userSpaceOnUse"><g transform="translate(-2.02 -3.99)"><polygon points="2.02 6.61 27.16 6.61 27.16 26.02 2.02 26.02 2.02 6.61" fill="#fff"/></g></mask><mask id="b" x="0.52" y="0" width="9.66" height="1.1" maskUnits="userSpaceOnUse"><g transform="translate(-2.02 -3.99)"><polygon points="2.54 3.99 12.2 3.99 12.2 5.09 2.54 5.09 2.54 3.99" fill="#fff"/></g></mask></defs><title>icon-delivery-dark</title><g mask="url(#a)"><path d="M26.27,23.07a.07.07,0,0,1-.07.07H25.14a2.06,2.06,0,0,0-1.66-1.94,2.39,2.39,0,0,0-.75-.13,2.36,2.36,0,0,0-.75.13,2.06,2.06,0,0,0-1.66,1.94h-.78V11.69l2.81,0,.05,0,3.88,4.92Zm-3.55,2.05a1.56,1.56,0,0,1-1.55-1.56s0-.06,0-.09a1.57,1.57,0,0,1,1-1.4,2.48,2.48,0,0,1,1.09,0,1.57,1.57,0,0,1,1,1.4s0,.06,0,.09A1.56,1.56,0,0,1,22.72,25.12Zm-13,0a1.56,1.56,0,0,1-1.55-1.54c0-.08,0-.16,0-.23a1.57,1.57,0,0,1,.87-1.22,2.71,2.71,0,0,1,1.33,0,1.57,1.57,0,0,1,.87,1.22c0,.08,0,.15,0,.23A1.56,1.56,0,0,1,9.71,25.12ZM4.77,23.07V15.89H7.63a.45.45,0,0,0,0-.9H4.77V11.7H10.2a.45.45,0,0,0,0-.91H4.77V7.59a.07.07,0,0,1,.07-.07H18.56a.07.07,0,0,1,.07.07V23.14H12.13s0-.05,0-.08v0a2,2,0,0,0-1.36-1.73,2.34,2.34,0,0,0-2.06,0A2,2,0,0,0,7.33,23v0s0,0,0,.08H4.84A.07.07,0,0,1,4.77,23.07Zm22.18-7-3.86-4.87a1,1,0,0,0-.74-.36l-2.82,0V7.59a1,1,0,0,0-1-1H4.84a1,1,0,0,0-1,1V10.8H3a.45.45,0,0,0,0,.91h.89V15H2.47a.45.45,0,0,0,0,.9H3.88v7.17a1,1,0,0,0,1,1H7.32a2.44,2.44,0,0,0,4.79,0h8.22a2.44,2.44,0,0,0,4.79,0H26.2a1,1,0,0,0,1-1v-6.4A1,1,0,0,0,26.95,16.05Z" transform="translate(-2.02 -3.99)" fill="#3a3735"/></g><path d="M14.78,9.16a.45.45,0,0,0-.45-.45H6.59a.45.45,0,0,0,0,.91h7.74a.45.45,0,0,0,.45-.45" transform="translate(-2.02 -3.99)" fill="#3a3735"/><g mask="url(#b)"><path d="M3,4.9h8.77a.45.45,0,0,0,0-.91H3A.45.45,0,0,0,3,4.9" transform="translate(-2.02 -3.99)" fill="#3a3735"/></g><path d="M8.59,13.35a.45.45,0,0,0-.45-.45H6.59a.45.45,0,0,0,0,.91H8.14a.45.45,0,0,0,.45-.45" transform="translate(-2.02 -3.99)" fill="#3a3735"/></svg>