<svg xmlns="http://www.w3.org/2000/svg" viewBox="0 0 36.56 36.35"><title>icon-discounts</title><path d="M41.56,24.18c0,1.47-1.73,2.69-2.1,4s.5,3.32-.22,4.55-2.84,1.44-3.86,2.45-1.22,3.11-2.47,3.83-3.16-.16-4.57.22-2.59,2.08-4.07,2.08-2.71-1.72-4.07-2.08-3.34.49-4.57-.22-1.45-2.82-2.47-3.83S10,34,9.31,32.76s.16-3.14-.22-4.55S7,25.64,7,24.18s1.73-2.69,2.1-4-.5-3.32.22-4.55,2.84-1.44,3.86-2.46S14.39,10,15.64,9.3s3.16.16,4.57-.22S22.81,7,24.28,7,27,8.72,28.35,9.08s3.34-.49,4.57.22,1.46,2.82,2.47,3.83,3.13,1.21,3.85,2.45-.16,3.14.22,4.55S41.57,22.71,41.56,24.18Z" transform="translate(-6 -6)" fill="none" stroke="#fff" stroke-linecap="round" stroke-linejoin="round" stroke-width="2"/><path d="M21.89,20.43a2.44,2.44,0,0,1-2.44,2.43h0A2.44,2.44,0,0,1,17,20.43h0a2.44,2.44,0,0,1,4.89,0Zm8,9a2.44,2.44,0,0,1-2.44,2.43h0A2.44,2.44,0,0,1,25,29.43h0A2.44,2.44,0,0,1,27.44,27h0a2.44,2.44,0,0,1,2.44,2.43ZM29,19,18,29.94" transform="translate(-6 -6)" fill="none" stroke="#fff" stroke-linecap="round" stroke-linejoin="round" stroke-width="2"/></svg>