<svg xmlns="http://www.w3.org/2000/svg" viewBox="0 0 35 19.68"><title>icon-social-vk</title><path d="M34.81,17.77l-.12-.22a18,18,0,0,0-3.48-4l0,0,0,0,0,0h0Q30,12.41,29.65,12a1.37,1.37,0,0,1-.26-1.45A13.55,13.55,0,0,1,31,8.23L32.22,6.7Q35.37,2.57,35,1.42l-.11-.18a1.07,1.07,0,0,0-.56-.3,2.91,2.91,0,0,0-1.17,0l-5.25,0a.69.69,0,0,0-.36,0L27.26,1l-.09,0-.07.05a.81.81,0,0,0-.2.19,1.23,1.23,0,0,0-.18.31,29.13,29.13,0,0,1-2,4q-.67,1.11-1.24,1.93a9.31,9.31,0,0,1-.95,1.2,6.58,6.58,0,0,1-.69.62q-.31.23-.47.2l-.31-.07a1.2,1.2,0,0,1-.41-.44,2,2,0,0,1-.21-.7q-.05-.42-.06-.73t0-.86q0-.56,0-.75,0-.68,0-1.48t0-1.27q0-.47,0-1a4.09,4.09,0,0,0-.06-.82,2.77,2.77,0,0,0-.19-.57,1,1,0,0,0-.37-.43A2.12,2.12,0,0,0,19.3.24,12.3,12.3,0,0,0,16.84,0a12.12,12.12,0,0,0-4.36.43,2.45,2.45,0,0,0-.69.54q-.33.4-.09.43a2.24,2.24,0,0,1,1.55.77l.11.22a3.4,3.4,0,0,1,.26.83,8.22,8.22,0,0,1,.16,1.31,13.77,13.77,0,0,1,0,2.24q-.09.93-.17,1.45a2.88,2.88,0,0,1-.25.84,3.55,3.55,0,0,1-.22.39.31.31,0,0,1-.09.09,1.38,1.38,0,0,1-.49.09,1.16,1.16,0,0,1-.62-.25,4.35,4.35,0,0,1-.76-.69,9.24,9.24,0,0,1-.88-1.23q-.49-.79-1-1.87L9,5.08q-.27-.5-.75-1.46T7.4,1.76A1.19,1.19,0,0,0,7,1.19l-.09-.05A1.25,1.25,0,0,0,6.58,1,2,2,0,0,0,6.16.86l-5,0a1.28,1.28,0,0,0-1,.34l-.07.11A.57.57,0,0,0,0,1.64a1.41,1.41,0,0,0,.11.48Q1.2,4.65,2.49,7t2.23,3.79q.95,1.44,1.93,2.71T8,15.14q.32.36.5.54l.46.43a10.78,10.78,0,0,0,1.28,1,22,22,0,0,0,1.88,1.19,10.27,10.27,0,0,0,2.4,1,8.4,8.4,0,0,0,2.66.3h2.1a1.46,1.46,0,0,0,1-.4l.07-.09a1.18,1.18,0,0,0,.14-.33,1.8,1.8,0,0,0,.06-.49,5.83,5.83,0,0,1,.12-1.39,3.62,3.62,0,0,1,.31-.93,2.3,2.3,0,0,1,.39-.53,1.58,1.58,0,0,1,.31-.26l.15-.06a1.17,1.17,0,0,1,1,.28,6,6,0,0,1,1.11,1q.52.62,1.25,1.39a8.53,8.53,0,0,0,1.28,1.15l.36.22a4.47,4.47,0,0,0,.95.4,2.07,2.07,0,0,0,1,.09l4.66-.07a2.14,2.14,0,0,0,1.08-.22.89.89,0,0,0,.46-.49,1.37,1.37,0,0,0,0-.61A2.23,2.23,0,0,0,34.81,17.77Z" fill="#fff"/></svg>