<svg xmlns="http://www.w3.org/2000/svg" viewBox="0 0 25 18.69"><title>icon-social-you</title><path d="M24.23,3.8c-.68-2.14-1.61-2.58-4.1-3.06A46.3,46.3,0,0,0,12.5.15a46.3,46.3,0,0,0-7.63.6c-2.49.48-3.42.92-4.1,3.06A18.43,18.43,0,0,0,0,9.49a18.43,18.43,0,0,0,.77,5.69c.68,2.14,1.61,2.58,4.1,3.06a46.3,46.3,0,0,0,7.63.6,46.3,46.3,0,0,0,7.63-.6c2.49-.48,3.42-.92,4.1-3.06A18.43,18.43,0,0,0,25,9.49,18.43,18.43,0,0,0,24.23,3.8ZM17.33,10,10,14.65c-.44.28-.8.09-.8-.44V4.77c0-.52.36-.72.8-.44L17.33,9A.56.56,0,0,1,17.33,10Z" transform="translate(0 -0.15)" fill="#fff"/></svg>