<svg xmlns="http://www.w3.org/2000/svg" viewBox="0 0 38.96 35.42"><title>icon-logistic</title><path d="M40.26,38.21A3.13,3.13,0,1,1,37.13,35,3.17,3.17,0,0,1,40.26,38.21Zm-20,0A3.13,3.13,0,1,1,17.13,35,3.17,3.17,0,0,1,20.26,38.21Z" transform="translate(-5 -7)" fill="none" stroke="#fff" stroke-linecap="round" stroke-linejoin="round" stroke-width="2"/><path d="M36.68,19.06,32,19V38.57h2.36c0-2.45,1.28-3.21,2.87-3.21s2.87.76,2.87,3.21h2.13a.79.79,0,0,0,.74-.83V27.6a.9.9,0,0,0-.16-.52l-5.55-7.72A.72.72,0,0,0,36.68,19.06Z" transform="translate(-5 -7)" fill="none" stroke="#fff" stroke-linecap="round" stroke-linejoin="round" stroke-width="2"/><path d="M9,12.83V37.35a.82.82,0,0,0,.81.83h4.52c0-2.46,1.41-3.17,3.13-3.17s3.1.71,3.12,3.16H32.13V12.83a.82.82,0,0,0-.81-.83H9.81a.82.82,0,0,0-.81.83H9ZM12,16H24.13M7,8H20.74M7,19H18.32M12,22h2.43M6,26h8.09" transform="translate(-5 -7)" fill="none" stroke="#fff" stroke-linecap="round" stroke-linejoin="round" stroke-width="2"/></svg>