<svg xmlns="http://www.w3.org/2000/svg" viewBox="0 0 36.27 32.25"><title>icon-site</title><path d="M31,31.9l1.11,5.52a.76.76,0,0,0,1.28.38l1.15-1.14,2.15,2.14a1.53,1.53,0,0,0,2.15,0,1.5,1.5,0,0,0,0-2.13h0l-2.15-2.14,1.15-1.14a.75.75,0,0,0-.39-1.28L31.91,31a.76.76,0,0,0-.9.89ZM25.21,20.34l.66,1.33a.61.61,0,0,0,.46.33l1.47.21a.6.6,0,0,1,.34,1l-1.07,1a.6.6,0,0,0-.17.54l.25,1.46a.61.61,0,0,1-.89.64l-1.32-.69a.61.61,0,0,0-.57,0l-1.32.69a.61.61,0,0,1-.89-.64l.25-1.46a.6.6,0,0,0-.17-.54l-1.07-1a.6.6,0,0,1,.34-1L23,22a.61.61,0,0,0,.46-.33l.66-1.33a.61.61,0,0,1,1.09,0Zm10,0,.66,1.33a.61.61,0,0,0,.46.33l1.47.21a.6.6,0,0,1,.34,1l-1.07,1a.6.6,0,0,0-.17.54l.25,1.46a.61.61,0,0,1-.88.64l-1.32-.69a.61.61,0,0,0-.57,0l-1.32.69a.61.61,0,0,1-.88-.64l.25-1.46a.6.6,0,0,0-.17-.54l-1.07-1a.6.6,0,0,1,.34-1L33,22a.61.61,0,0,0,.46-.33l.66-1.33a.61.61,0,0,1,1.09,0Zm-19,0,.66,1.33a.61.61,0,0,0,.46.33l1.47.21a.6.6,0,0,1,.34,1l-1.07,1a.6.6,0,0,0-.17.54l.25,1.46a.61.61,0,0,1-.89.64l-1.32-.69a.61.61,0,0,0-.57,0l-1.32.69a.61.61,0,0,1-.89-.64l.25-1.46a.6.6,0,0,0-.18-.54l-1.07-1a.6.6,0,0,1,.34-1L14,22a.61.61,0,0,0,.46-.33l.66-1.33a.61.61,0,0,1,1.09,0Z" transform="translate(-7 -8)" fill="none" stroke="#fff" stroke-linecap="round" stroke-linejoin="round" stroke-width="2"/><path d="M32.34,35.94H8.76A.76.76,0,0,1,8,35.18H8V9.76A.76.76,0,0,1,8.76,9H41.51a.76.76,0,0,1,.76.76V35.18a.76.76,0,0,1-.76.76H38.63M8,14H41.48" transform="translate(-7 -8)" fill="none" stroke="#fff" stroke-linecap="round" stroke-linejoin="round" stroke-width="2"/><path d="M11.49,11.24a.25.25,0,1,1-.25-.24A.25.25,0,0,1,11.49,11.24Zm3,0a.25.25,0,1,1-.25-.24A.25.25,0,0,1,14.49,11.24Zm3,0a.25.25,0,1,1-.25-.24A.25.25,0,0,1,17.49,11.24Z" transform="translate(-7 -8)" fill="none" stroke="#fff" stroke-linecap="round" stroke-linejoin="round" stroke-width="2"/></svg>